<svg width="100" height="130" viewBox="0 0 100 130" fill="none" xmlns="http://www.w3.org/2000/svg">
<path fill-rule="evenodd" clip-rule="evenodd" d="M98.8665 91.2883L98.8814 8.61288C98.8814 4.47623 95.4531 1.11032 91.2383 1.11032H8.75359C4.53939 1.11032 1.11169 4.47623 1.11169 8.61288V91.2883H98.8665Z" fill="#FEFEFE"/>
<path fill-rule="evenodd" clip-rule="evenodd" d="M22.2772 75.0586H28.3385V70.3542H29.9797V82.6548H28.3385V76.3217H22.2772V82.6548H20.6542V70.3542H22.2772V75.0586Z" fill="#008B5A"/>
<path fill-rule="evenodd" clip-rule="evenodd" d="M40.6109 78.5911C40.6109 79.1891 40.4957 79.7475 40.2658 80.2661C40.0355 80.7848 39.7217 81.2397 39.3236 81.6299C38.9256 82.0207 38.4594 82.3283 37.925 82.5543C37.3902 82.7796 36.8183 82.893 36.2089 82.893C35.5997 82.893 35.0309 82.7796 34.5024 82.5543C33.9739 82.3283 33.511 82.0207 33.1131 81.6299C32.715 81.2397 32.4011 80.7848 32.171 80.2661C31.9408 79.7475 31.8259 79.1891 31.8259 78.5911C31.8259 77.9937 31.9408 77.4352 32.171 76.9165C32.4011 76.398 32.715 75.9436 33.1131 75.5529C33.511 75.1621 33.9739 74.8545 34.5024 74.6285C35.0309 74.4025 35.5997 74.2898 36.2089 74.2898C36.8183 74.2898 37.3902 74.4025 37.925 74.6285C38.4594 74.8545 38.9256 75.1621 39.3236 75.5529C39.7217 75.9436 40.0355 76.398 40.2658 76.9165C40.4957 77.4352 40.6109 77.9937 40.6109 78.5911ZM36.1905 75.6989C35.8174 75.6989 35.4631 75.7752 35.1272 75.9278C34.7915 76.0806 34.5024 76.2877 34.26 76.5501C34.0176 76.813 33.8248 77.1177 33.6818 77.4655C33.5387 77.8133 33.4673 78.1888 33.4673 78.5911C33.4673 78.9939 33.5387 79.3725 33.6818 79.7263C33.8248 80.0801 34.0176 80.3886 34.26 80.6503C34.5024 80.9131 34.7915 81.1232 35.1272 81.282C35.4631 81.4409 35.8174 81.5202 36.1905 81.5202C36.5633 81.5202 36.9176 81.4409 37.2536 81.282C37.5893 81.1232 37.8784 80.9131 38.1207 80.6503C38.3633 80.3886 38.556 80.0801 38.6991 79.7263C38.8418 79.3725 38.9132 78.9939 38.9132 78.5911C38.9132 78.1888 38.8418 77.8133 38.6991 77.4655C38.556 77.1177 38.3633 76.813 38.1207 76.5501C37.8784 76.2877 37.5893 76.0806 37.2536 75.9278C36.9176 75.7752 36.5633 75.6989 36.1905 75.6989Z" fill="#008B5A"/>
<path fill-rule="evenodd" clip-rule="evenodd" d="M43.1657 81.5935C43.5508 81.7151 43.9424 81.7765 44.3407 81.7765C44.9122 81.7765 45.3349 81.6601 45.6087 81.4287C45.8821 81.1965 46.019 80.904 46.019 80.5496C46.019 80.1958 45.8979 79.9093 45.6553 79.6893C45.4127 79.4701 44.9995 79.2562 44.4149 79.0491C43.6067 78.7685 43.0132 78.4329 42.6339 78.0423C42.2545 77.6515 42.065 77.2062 42.065 76.7057C42.065 76.3762 42.1367 76.0653 42.2795 75.7722C42.4225 75.4796 42.6245 75.2233 42.8856 75.0033C43.1469 74.7841 43.464 74.6101 43.8369 74.4818C44.21 74.354 44.6325 74.2898 45.1051 74.2898C45.5403 74.2898 45.9446 74.3418 46.3173 74.4454C46.6906 74.5492 46.9952 74.6679 47.2313 74.8024L46.8585 75.8824C46.6841 75.785 46.4418 75.6808 46.131 75.571C45.8201 75.4614 45.4656 75.4062 45.068 75.4062C44.5953 75.4062 44.2348 75.516 43.9863 75.736C43.7373 75.9553 43.6131 76.2181 43.6131 76.5227C43.6131 76.8765 43.7437 77.1486 44.0047 77.3376C44.2659 77.5266 44.6822 77.7248 45.2545 77.9324C46.0127 78.2009 46.5881 78.5276 46.9797 78.9116C47.3715 79.2962 47.5671 79.7991 47.5671 80.4218C47.5671 81.1536 47.281 81.7522 46.709 82.2156C46.1371 82.6789 45.3349 82.9111 44.3032 82.9111C43.8184 82.9111 43.3644 82.856 42.9419 82.7463C42.5187 82.6368 42.1521 82.4961 41.8412 82.3253L42.2144 81.2087C42.4629 81.3432 42.7797 81.471 43.1657 81.5935Z" fill="#008B5A"/>
<path fill-rule="evenodd" clip-rule="evenodd" d="M49.2078 86.2794V74.4909H50.8489V74.9119C51.2344 74.7538 51.6231 74.6163 52.0147 74.4999C52.4062 74.3841 52.8196 74.3262 53.2552 74.3262C53.7149 74.3262 54.1997 74.4025 54.7097 74.5551C55.2196 74.7078 55.689 74.9517 56.1181 75.2875C56.547 75.6232 56.898 76.0653 57.1718 76.6143C57.4451 77.1636 57.5818 77.8289 57.5818 78.6098C57.5818 79.4029 57.4451 80.0709 57.1718 80.6137C56.898 81.1571 56.547 81.5994 56.1181 81.9412C55.689 82.283 55.2196 82.5299 54.7097 82.6821C54.1997 82.8348 53.7149 82.9111 53.2552 82.9111C52.8196 82.9111 52.4062 82.8499 52.0147 82.7281C51.6231 82.6063 51.2344 82.4718 50.8489 82.3253V86.2794H49.2078ZM50.8489 80.861C51.2094 81.0318 51.539 81.1603 51.8376 81.245C52.1361 81.331 52.3907 81.3917 52.6023 81.4287C52.8508 81.477 53.0746 81.5013 53.2736 81.5013C53.5719 81.5013 53.8798 81.4499 54.1967 81.3462C54.5141 81.2426 54.8059 81.0749 55.0736 80.8429C55.3406 80.6107 55.5611 80.3122 55.7357 79.9456C55.9097 79.5796 55.9967 79.1283 55.9967 78.591C55.9967 78.0664 55.9097 77.6181 55.7357 77.2461C55.5611 76.8735 55.3406 76.5749 55.0736 76.3489C54.8059 76.1229 54.5141 75.9587 54.1967 75.8546C53.8798 75.7511 53.5719 75.6989 53.2736 75.6989C53.0746 75.6989 52.8508 75.7236 52.6023 75.7722C52.3907 75.809 52.1361 75.8703 51.8376 75.9552C51.539 76.0412 51.2094 76.1628 50.8489 76.3217V80.861Z" fill="#008B5A"/>
<path fill-rule="evenodd" clip-rule="evenodd" d="M59.2602 74.6738H60.9015V82.6548H59.2602V74.6738ZM59.279 69.7133H60.9015V71.6168H59.279V69.7133Z" fill="#008B5A"/>
<path fill-rule="evenodd" clip-rule="evenodd" d="M66.6647 81.3735V82.6548C66.441 82.6913 66.2045 82.7099 65.9561 82.7099C65.5706 82.7099 65.2287 82.6488 64.9302 82.5263C64.6317 82.4047 64.383 82.2399 64.1843 82.0327C63.9605 81.7885 63.7987 81.471 63.6993 81.0811C63.5996 80.6901 63.5504 80.2389 63.5504 79.7263V75.8091H62.2818L65.1539 72.8619V74.6738H67.4854V75.8091H65.1539V79.6712C65.1539 80.2201 65.2441 80.6411 65.4248 80.9344C65.6046 81.2269 65.925 81.3735 66.3851 81.3735H66.6647Z" fill="#008B5A"/>
<path fill-rule="evenodd" clip-rule="evenodd" d="M71.999 74.3078C72.6949 74.3078 73.2639 74.4115 73.7054 74.6193C74.1467 74.8264 74.4948 75.1014 74.7496 75.4426C75.0044 75.785 75.1815 76.1721 75.2812 76.6052C75.3807 77.0383 75.4307 77.4745 75.4307 77.9136V82.6548H73.7893V82.3435C73.4284 82.5022 73.046 82.6306 72.6424 82.7282C72.2381 82.8256 71.8372 82.8771 71.4392 82.8838C71.0411 82.89 70.656 82.844 70.2829 82.7463C69.91 82.6487 69.5835 82.4961 69.3038 82.289C69.024 82.0811 68.8028 81.8097 68.6416 81.474C68.4797 81.1386 68.3993 80.727 68.3993 80.2389C68.4614 79.616 68.6912 79.0732 69.0893 78.6099C69.2508 78.4148 69.4622 78.2251 69.7232 78.0422C69.9845 77.8591 70.3045 77.7035 70.6838 77.5752C71.0632 77.4473 71.5106 77.3588 72.0266 77.3098C72.5427 77.2613 73.1365 77.2613 73.8077 77.3098C73.8201 76.8463 73.7209 76.4956 73.5094 76.2576C73.2979 76.0194 73.0618 75.8394 72.8007 75.7176C72.4899 75.5831 72.1414 75.5038 71.7564 75.4796C71.3208 75.4796 70.9013 75.5378 70.4973 75.6534C70.0931 75.7691 69.7293 75.9309 69.4063 76.1387L69.0332 75.0586C69.4063 74.8386 69.8507 74.6587 70.3668 74.5188C70.8825 74.3782 71.4267 74.3078 71.999 74.3078ZM73.8077 81.2451V78.5177C72.8131 78.4693 72.0516 78.5244 71.5232 78.6825C70.9945 78.8412 70.6061 79.0248 70.3575 79.232C70.0591 79.4761 69.8911 79.7686 69.8538 80.1104C69.8538 80.5011 69.9845 80.8036 70.2456 81.0167C70.5066 81.2299 70.836 81.3766 71.234 81.4559C71.6318 81.5352 72.061 81.5536 72.5211 81.511C72.981 81.4681 73.4099 81.3796 73.8077 81.2451Z" fill="#008B5A"/>
<path fill-rule="evenodd" clip-rule="evenodd" d="M79.2167 69.7133V82.6548H77.5753V69.7133H79.2167Z" fill="#008B5A"/>
<path fill-rule="evenodd" clip-rule="evenodd" d="M1.11169 91.2883V120.888C1.11169 125.026 4.53939 128.393 8.75359 128.393H97.6729C98.3196 128.393 98.8468 127.878 98.8468 127.241L98.8665 91.2883H1.11169Z" fill="#008B5A"/>
<path fill-rule="evenodd" clip-rule="evenodd" d="M8.7882 0C3.94186 0 0 3.86995 0 8.62679V120.888C0 125.646 3.94186 129.518 8.7882 129.518H99.9629L100 8.62862C100 3.86995 96.0567 0 91.2099 0H8.7882ZM2.28583 120.888V8.57411C2.28583 5.07359 5.18697 2.22527 8.75359 2.22527H91.2384C94.805 2.22527 97.7073 5.07359 97.7073 8.57411C97.7073 8.57652 97.679 119.814 97.6729 127.24C95.4135 127.24 8.75359 127.24 8.75359 127.24C5.18697 127.24 2.28583 124.39 2.28583 120.888Z" fill="#C2D83E"/>
<path fill-rule="evenodd" clip-rule="evenodd" d="M79.7139 99.9139H83.1076L88.2074 106.574H84.8137L87.3533 109.905H83.1076L80.5682 106.574H82.252L79.7139 103.243H82.252L79.7139 99.9139Z" fill="#FEFEFE"/>
<path fill-rule="evenodd" clip-rule="evenodd" d="M79.7139 99.9139H76.3201L71.2178 106.574H74.6116L72.0726 109.905H76.3201L78.8595 106.574H77.1509L79.7139 103.243H77.1744L79.7139 99.9139Z" fill="#FEFEFE"/>
<path fill-rule="evenodd" clip-rule="evenodd" d="M15.3485 100.594H11.7263V106.254C11.7263 108.995 13.803 110.059 16.4337 110.059C19.2936 110.059 21.1855 109.062 21.1855 106.05V100.594H17.6324V106.119C17.6324 107.024 17.425 107.659 16.4788 107.659C15.6022 107.659 15.3485 107.002 15.3485 106.119V100.594Z" fill="#FEFEFE"/>
<path fill-rule="evenodd" clip-rule="evenodd" d="M22.0867 109.9H25.5014V105.893C25.5014 105.508 25.5014 104.964 26.1237 104.964C26.7237 104.964 26.7237 105.508 26.7237 105.893V109.9H30.1397V105.077C30.1397 103.718 29.4687 102.79 27.647 102.79C26.6779 102.79 25.7545 103.176 25.3397 104.148H25.3176V102.947H22.0867V109.9Z" fill="#FEFEFE"/>
<path fill-rule="evenodd" clip-rule="evenodd" d="M31.3162 109.9H34.7303V102.947H31.3162V109.9ZM34.7303 99.9139H31.3162V102.223H34.7303V99.9139Z" fill="#FEFEFE"/>
<path fill-rule="evenodd" clip-rule="evenodd" d="M35.8618 109.9H39.2765V105.893C39.2765 105.508 39.2765 104.964 39.8986 104.964C40.4752 104.964 40.4752 105.508 40.4752 105.893V109.9H43.9135V105.893C43.9135 105.508 43.9135 104.964 44.4912 104.964C45.1141 104.964 45.1141 105.508 45.1141 105.893V109.9H48.5282V105.734C48.5282 104.374 48.5282 102.79 46.0368 102.79C45.1826 102.79 44.006 103.176 43.7753 103.99H43.7518C43.4764 103.151 42.4839 102.79 41.5369 102.79C40.4529 102.79 39.5302 103.176 39.1142 104.148H39.0912V102.947H35.8618V109.9Z" fill="#FEFEFE"/>
<path fill-rule="evenodd" clip-rule="evenodd" d="M52.5663 105.756C52.5206 105.213 52.6811 104.399 53.489 104.399C54.2508 104.399 54.3428 105.235 54.3428 105.756H52.5663ZM57.297 107.228V106.821C57.297 104.465 56.3265 102.79 53.581 102.79C50.7206 102.79 49.198 103.966 49.198 106.299C49.198 108.701 50.7206 110.059 53.581 110.059C54.781 110.059 55.8661 109.923 56.7661 109.652V107.863C56.2352 108.134 55.381 108.294 54.4589 108.294C53.4427 108.294 52.6347 108.089 52.5663 107.228H57.297Z" fill="#FEFEFE"/>
<path fill-rule="evenodd" clip-rule="evenodd" d="M66.6067 109.9V99.9139H63.192V103.855H63.1678C62.6376 103.107 61.9464 102.79 61.0228 102.79C58.9006 102.79 58.0241 104.443 58.0241 106.323C58.0241 108.315 58.8549 110.059 61.1389 110.059C62.2464 110.059 62.9389 109.674 63.3993 108.632H63.4228V109.9H66.6067ZM63.2857 106.389C63.2857 107.047 63.1678 107.817 62.4549 107.817C61.692 107.817 61.5772 107.047 61.5772 106.323C61.5772 105.598 61.692 104.874 62.408 104.874C63.1678 104.874 63.2857 105.598 63.2857 106.389Z" fill="#FEFEFE"/>
<path fill-rule="evenodd" clip-rule="evenodd" d="M69.4412 120.285V98.2454H68.8732V120.285H69.4412Z" fill="#FEFEFE"/>
<path fill-rule="evenodd" clip-rule="evenodd" d="M88.2074 111.57H11.743V112.127H88.2074V111.57Z" fill="#FEFEFE"/>
<path fill-rule="evenodd" clip-rule="evenodd" d="M24.38 118.867H23.6403L21.915 114.069H22.6199L24.0169 118.229H24.031L25.441 114.069H26.1194L24.38 118.867Z" fill="#FEFEFE"/>
<path fill-rule="evenodd" clip-rule="evenodd" d="M27.6964 115.312C28.8198 115.312 29.4156 116.112 29.4156 117.134C29.4156 118.148 28.8198 118.948 27.6964 118.948C26.5735 118.948 25.978 118.148 25.978 117.134C25.978 116.112 26.5735 115.312 27.6964 115.312ZM27.6964 118.444C28.3064 118.444 28.7989 117.974 28.7989 117.134C28.7989 116.286 28.3064 115.816 27.6964 115.816C27.0872 115.816 26.594 116.286 26.594 117.134C26.594 117.974 27.0872 118.444 27.6964 118.444Z" fill="#FEFEFE"/>
<path fill-rule="evenodd" clip-rule="evenodd" d="M30.136 114.069H30.7187V118.867H30.136V114.069Z" fill="#FEFEFE"/>
<path fill-rule="evenodd" clip-rule="evenodd" d="M32.4311 115.393H33.1359V115.897H32.4311V118.054C32.4311 118.316 32.5062 118.363 32.8693 118.363H33.1359V118.867H32.6916C32.089 118.867 31.8488 118.746 31.8488 118.108V115.897H31.2463V115.393H31.8488V114.351H32.4311V115.393Z" fill="#FEFEFE"/>
<path fill-rule="evenodd" clip-rule="evenodd" d="M36.9174 118.854C36.8149 118.915 36.6841 118.948 36.4993 118.948C36.1982 118.948 36.0062 118.787 36.0062 118.411C35.6846 118.78 35.2531 118.948 34.7606 118.948C34.1162 118.948 33.5891 118.666 33.5891 117.974C33.5891 117.187 34.1853 117.019 34.7877 116.905C35.4309 116.784 35.9791 116.824 35.9791 116.394C35.9791 115.897 35.5617 115.816 35.1914 115.816C34.6989 115.816 34.3358 115.964 34.3081 116.475H33.7261C33.7607 115.615 34.4383 115.312 35.2259 115.312C35.863 115.312 36.5544 115.453 36.5544 116.267V118.054C36.5544 118.323 36.5544 118.444 36.7396 118.444C36.7871 118.444 36.8419 118.437 36.9174 118.411V118.854ZM35.9722 117.073C35.7463 117.234 35.308 117.241 34.9174 117.308C34.5347 117.375 34.2055 117.51 34.2055 117.933C34.2055 118.309 34.5347 118.444 34.8902 118.444C35.6569 118.444 35.9722 117.974 35.9722 117.658V117.073Z" fill="#FEFEFE"/>
<path fill-rule="evenodd" clip-rule="evenodd" d="M39.4606 114.069H41.7617C42.679 114.069 43.2474 114.559 43.2474 115.326C43.2474 115.904 42.9877 116.38 42.3987 116.542V116.556C42.9666 116.663 43.0833 117.073 43.1308 117.544C43.1722 118.014 43.1444 118.538 43.4186 118.867H42.6925C42.508 118.672 42.611 118.155 42.5148 117.684C42.4461 117.214 42.3296 116.817 41.6999 116.817H40.111V118.867H39.4606V114.069ZM41.4673 116.28C42.0765 116.28 42.5973 116.125 42.5973 115.426C42.5973 114.956 42.337 114.607 41.7271 114.607H40.111V116.28H41.4673Z" fill="#FEFEFE"/>
<path fill-rule="evenodd" clip-rule="evenodd" d="M47.0777 117.765C46.9201 118.531 46.3591 118.948 45.5642 118.948C44.4345 118.948 43.9005 118.181 43.8666 117.12C43.8666 116.078 44.5647 115.312 45.5301 115.312C46.7838 115.312 47.1665 116.461 47.1325 117.301H44.4826C44.4617 117.907 44.8111 118.444 45.5851 118.444C46.0641 118.444 46.3998 118.215 46.5023 117.765H47.0777ZM46.5159 116.797C46.4887 116.253 46.0713 115.816 45.4962 115.816C44.8863 115.816 44.5233 116.267 44.4826 116.797H46.5159Z" fill="#FEFEFE"/>
<path fill-rule="evenodd" clip-rule="evenodd" d="M50.9008 118.867H50.3182V118.397H50.3046C50.1132 118.78 49.6616 118.948 49.175 118.948C48.0862 118.948 47.5454 118.101 47.5454 117.12C47.5454 116.139 48.0789 115.312 49.1616 115.312C49.5244 115.312 50.0441 115.446 50.3046 115.856H50.3182V114.069H50.9008V118.867ZM49.2573 118.444C50.038 118.444 50.3392 117.785 50.3392 117.134C50.3392 116.448 50.0243 115.816 49.2233 115.816C48.4283 115.816 48.1617 116.482 48.1617 117.16C48.1617 117.812 48.5035 118.444 49.2573 118.444Z" fill="#FEFEFE"/>
<path fill-rule="evenodd" clip-rule="evenodd" d="M53.3267 115.312C54.4495 115.312 55.0451 116.112 55.0451 117.134C55.0451 118.148 54.4495 118.948 53.3267 118.948C52.2032 118.948 51.6074 118.148 51.6074 117.134C51.6074 116.112 52.2032 115.312 53.3267 115.312ZM53.3267 118.444C53.9353 118.444 54.4292 117.974 54.4292 117.134C54.4292 116.286 53.9353 115.816 53.3267 115.816C52.7168 115.816 52.2241 116.286 52.2241 117.134C52.2241 117.974 52.7168 118.444 53.3267 118.444Z" fill="#FEFEFE"/>
<path fill-rule="evenodd" clip-rule="evenodd" d="M55.7316 115.393H56.2796V115.944H56.2932C56.5402 115.514 56.9372 115.312 57.4438 115.312C58.3748 115.312 58.6624 115.837 58.6624 116.582V118.867H58.0809V116.515C58.0809 116.092 57.8067 115.816 57.3619 115.816C56.6563 115.816 56.3143 116.28 56.3143 116.905V118.867H55.7316V115.393Z" fill="#FEFEFE"/>
<path fill-rule="evenodd" clip-rule="evenodd" d="M62.705 118.867H62.1229V118.397H62.1093C61.9174 118.78 61.4655 118.948 60.979 118.948C59.8907 118.948 59.3494 118.101 59.3494 117.12C59.3494 116.139 59.8833 115.312 60.9655 115.312C61.3284 115.312 61.8488 115.446 62.1093 115.856H62.1229V114.069H62.705V118.867ZM61.0611 118.444C61.8419 118.444 62.1431 117.785 62.1431 117.134C62.1431 116.448 61.8283 115.816 61.0272 115.816C60.2327 115.816 59.9661 116.482 59.9661 117.16C59.9661 117.812 60.3081 118.444 61.0611 118.444Z" fill="#FEFEFE"/>
<path fill-rule="evenodd" clip-rule="evenodd" d="M66.74 118.854C66.6376 118.915 66.508 118.948 66.3227 118.948C66.0216 118.948 65.8294 118.787 65.8294 118.411C65.508 118.78 65.0758 118.948 64.5833 118.948C63.9396 118.948 63.4124 118.666 63.4124 117.974C63.4124 117.187 64.008 117.019 64.6104 116.905C65.2542 116.784 65.8018 116.824 65.8018 116.394C65.8018 115.897 65.3845 115.816 65.0148 115.816C64.5215 115.816 64.1587 115.964 64.1314 116.475H63.5488C63.5834 115.615 64.2611 115.312 65.0488 115.312C65.6857 115.312 66.377 115.453 66.377 116.267V118.054C66.377 118.323 66.377 118.444 66.5623 118.444C66.6104 118.444 66.6647 118.437 66.74 118.411V118.854ZM65.7955 117.073C65.5696 117.234 65.1313 117.241 64.7406 117.308C64.3574 117.375 64.0289 117.51 64.0289 117.933C64.0289 118.309 64.3574 118.444 64.7128 118.444C65.4803 118.444 65.7955 117.974 65.7955 117.658V117.073Z" fill="#FEFEFE"/>
<path fill-rule="evenodd" clip-rule="evenodd" d="M25.4064 38.9345L23.9212 60.6324L44.1726 64.9535L48.5726 47.3687C47.0033 50.5189 44.4751 53.1222 41.011 55.2012C38.5716 56.6642 35.8542 57.6385 32.8586 58.1491C33.5604 50.5468 37.6184 45.0647 44.9812 41.7256C45.7362 41.3929 46.5134 41.1124 47.312 40.8792L25.4064 38.9345Z" fill="#C2D83E"/>
<path fill-rule="evenodd" clip-rule="evenodd" d="M48.5727 47.3687C49.6281 45.2605 50.2657 42.905 50.4874 40.3031C49.3911 40.4189 48.3159 40.6096 47.3121 40.8792C46.5135 41.1124 45.7363 41.3929 44.9813 41.7256C37.6185 45.0647 33.5605 50.5468 32.8587 58.1491C35.8543 57.6385 38.5716 56.6642 41.0111 55.2012C44.4752 53.1222 47.0034 50.5189 48.5727 47.3687Z" fill="white"/>
<path fill-rule="evenodd" clip-rule="evenodd" d="M70.3584 63.7445C71.2362 63.9384 72.1146 64.0855 73.0213 64.1842C72.6731 61.8009 72.0089 59.6007 71.035 57.5331C70.6931 56.8176 70.3271 56.1251 69.909 55.4309C66.1215 49.1806 60.4352 45.6396 52.9007 44.7885C53.037 46.8871 53.5106 48.8528 54.3488 50.6636C57.5771 57.8069 62.9135 62.1736 70.3584 63.7445Z" fill="white"/>
<path fill-rule="evenodd" clip-rule="evenodd" d="M45.1333 38.6413C46.0097 38.8371 46.8888 38.9842 47.7948 39.0817C47.4467 36.6992 46.7825 34.4982 45.809 32.4298C45.4677 31.7151 45.1004 31.0226 44.6826 30.3289C40.895 24.0781 35.2087 20.5372 27.6743 19.6867C27.8113 21.7845 28.2842 23.7504 29.1224 25.5623C32.352 32.7044 37.6876 37.0723 45.1333 38.6413Z" fill="#ED6E00"/>
<path fill-rule="evenodd" clip-rule="evenodd" d="M70.2943 64.4624L70.3584 63.7445C62.9136 62.1736 57.5772 57.8069 54.3488 50.6636C53.5107 48.8528 53.0371 46.8871 52.9007 44.7885C60.4353 45.6396 66.1216 49.1806 69.9091 55.4309C70.3271 56.1251 70.6931 56.8176 71.035 57.5331L72.8825 40.2583L51.4638 41.8983L46.3146 63.8232L70.2943 64.4624Z" fill="#98B849"/>
<path fill-rule="evenodd" clip-rule="evenodd" d="M49.8417 39.596L70.7641 37.7805L69.1913 14.9727L45.3518 17.7286L49.8417 39.596ZM59.7662 35.35C57.5359 36.6979 55.0241 37.6345 52.2315 38.1076C52.8824 30.999 56.6143 25.8975 63.4067 22.7774C64.993 22.0662 66.6653 21.6331 68.4757 21.4555C67.9876 27.5009 65.0938 32.1271 59.7662 35.35Z" fill="#2A9D84"/>
<path fill-rule="evenodd" clip-rule="evenodd" d="M52.2315 38.1077C55.0241 37.6345 57.5359 36.6979 59.7662 35.35C65.0938 32.1271 67.9876 27.501 68.4757 21.4556C66.6653 21.6331 64.993 22.0662 63.4067 22.7774C56.6143 25.8975 52.8824 30.999 52.2315 38.1077Z" fill="#C2D83E"/>
</svg>
